# xmcd
#
# Track frame offsets: 
#        150
#        22465
#        38823
#        54418
#        72832
#        91111
#        113008
#        132248
#        151128
#        167243
#
# Disc length: 2426 seconds
#
# Revision: 0
# Processed by: cddbd v1.5.2PL0 Copyright (c) Steve Scherf et al.
# Submitted via: ExactAudioCopy v0.99pb5
#
DISCID=7e09780a
DTITLE=Various Artist - Luna Borracha
DYEAR=2010
DGENRE=Argentine
TTITLE0=Unomasuno
TTITLE1=Ciutat Vella
TTITLE2=El bicho
TTITLE3=Arbol
TTITLE4=Del subsuelo
TTITLE5=Cuando las paredes... 
TTITLE6=Luna borracha
TTITLE7=Siempre nunca
TTITLE8=Un punto solo
TTITLE9=Milonga del tramposo
EXTD=
EXTT0=
EXTT1=
EXTT2=
EXTT3=
EXTT4=
EXTT5=
EXTT6=
EXTT7=
EXTT8=
EXTT9=
PLAYORDER=
